<?xml version="1.0" encoding="UTF-8"?>
<svg version="1.1" xmlns="http://www.w3.org/2000/svg" width="256" height="256">
<path d="M0 0 C23.77423087 18.6622515 39.30291216 42.49174132 47.5 71.4375 C47.84160156 72.61570312 48.18320313 73.79390625 48.53515625 75.0078125 C55.0610603 102.62908079 51.14997399 135.13755202 38.5 160.4375 C38.46281083 162.03608996 38.48678092 163.63634001 38.54296875 165.234375 C38.57487305 166.67296875 38.57487305 166.67296875 38.60742188 168.140625 C38.66040596 170.156605 38.72532799 172.17230995 38.80273438 174.1875 C38.91363443 180.33218446 38.59588269 183.75862671 34.5 188.4375 C32.0625 190.8125 32.0625 190.8125 28.5 192.4375 C26.43493043 192.33424652 24.37203368 192.18301543 22.3125 192 C18.02149396 191.85421271 16.14499397 191.95531141 12.66796875 194.5546875 C10.83921762 196.48786219 9.0617276 198.43044161 7.30078125 200.421875 C2.8247857 205.44566 -2.84697956 208.87235471 -8.5 212.4375 C-9.57894531 213.12714844 -10.65789062 213.81679687 -11.76953125 214.52734375 C-39.47699597 231.33245332 -74.90287162 236.51701359 -106.5324707 229.41064453 C-127.20831813 224.12975311 -146.72858094 214.97883623 -162.5 200.4375 C-163.07459961 199.9105957 -163.64919922 199.38369141 -164.24121094 198.84082031 C-183.28546217 181.18448952 -195.4421839 160.36023422 -202.5 135.4375 C-202.84160156 134.25929687 -203.18320313 133.08109375 -203.53515625 131.8671875 C-210.88214736 100.7706205 -205.15757965 64.589965 -188.5 37.4375 C-189.10328125 36.73753906 -189.7065625 36.03757813 -190.328125 35.31640625 C-195.82517747 28.02984569 -198.38416678 19.23666887 -197.90625 10.15625 C-196.93704877 3.67005714 -194.43907928 -0.07349577 -189.375 -4.1875 C-180.07358846 -10.88390336 -171.86677976 -15.95957312 -160.1875 -15.9375 C-159.06081909 -15.93834595 -159.06081909 -15.93834595 -157.91137695 -15.93920898 C-152.79180868 -15.83778201 -148.78184094 -15.093197 -144.26171875 -12.53515625 C-141.63182396 -11.08317443 -139.56637701 -10.25805616 -136.60327148 -11.10400391 C-135.94915283 -11.41257324 -135.29503418 -11.72114258 -134.62109375 -12.0390625 C-133.87375977 -12.37800537 -133.12642578 -12.71694824 -132.35644531 -13.06616211 C-131.15906738 -13.62122437 -131.15906738 -13.62122437 -129.9375 -14.1875 C-123.15209584 -17.19511657 -116.44221359 -19.65518619 -109.25 -21.5 C-108.47712646 -21.69867676 -107.70425293 -21.89735352 -106.90795898 -22.10205078 C-70.15924268 -31.1457899 -30.25979936 -22.15582361 0 0 Z " fill="#F0F1EF" transform="translate(205.5,24.5625)"/>
<path d="M0 0 C23.77423087 18.6622515 39.30291216 42.49174132 47.5 71.4375 C47.84160156 72.61570312 48.18320313 73.79390625 48.53515625 75.0078125 C55.0610603 102.62908079 51.14997399 135.13755202 38.5 160.4375 C38.46281083 162.03608996 38.48678092 163.63634001 38.54296875 165.234375 C38.57487305 166.67296875 38.57487305 166.67296875 38.60742188 168.140625 C38.66040596 170.156605 38.72532799 172.17230995 38.80273438 174.1875 C38.91354423 180.32718657 38.60782444 183.7705343 34.5 188.4375 C30.19623979 192.33137828 26.60727113 193.13297946 20.96875 192.88671875 C17.00401076 192.16528677 14.14967773 190.45967884 11.5 187.4375 C8.1449707 182.09121433 7.98537276 177.41995716 7.83984375 171.296875 C7.80443985 170.33348206 7.76903595 169.37008911 7.7325592 168.37750244 C7.62112836 165.31445059 7.52773752 162.25124417 7.4375 159.1875 C7.34218554 156.1095872 7.24280056 153.03203706 7.13172913 149.95465088 C7.06310274 148.04298329 7.00377715 146.13095507 6.95457458 144.21868896 C6.90926353 142.92659515 6.90926353 142.92659515 6.86303711 141.60839844 C6.84099716 140.84928162 6.81895721 140.09016479 6.79624939 139.30804443 C6.64945328 137.19509202 6.64945328 137.19509202 4.5 135.4375 C-0.11501157 135.1018628 -4.10369001 135.50251714 -8.625 136.4375 C-15.1132912 137.69153948 -21.94050491 138.45594792 -28.5 137.4375 C-30.4140625 135.57421875 -30.4140625 135.57421875 -31.5 133.4375 C-31.36483438 130.66660474 -30.97695881 129.06418374 -29.29296875 126.8515625 C-26.87411664 124.94388393 -24.98593331 124.77600719 -21.9375 124.375 C-20.79410156 124.21902344 -19.65070313 124.06304687 -18.47265625 123.90234375 C-15.56458228 123.56206764 -12.65832932 123.24122099 -9.74609375 122.94140625 C-8.93922119 122.85705322 -8.13234863 122.7727002 -7.30102539 122.68579102 C-5.70345503 122.52228804 -4.10495437 122.36759684 -2.50561523 122.22241211 C1.21054192 121.85213767 3.33774378 121.54567081 6.5 119.4375 C6.91666667 116.9375 6.91666667 116.9375 6.5 114.4375 C4.52743769 112.02593462 4.52743769 112.02593462 0.75 112.1875 C-3.33849004 112.26625101 -7.27413978 112.81139764 -11.3125 113.4375 C-24.20189282 115.3806948 -24.20189282 115.3806948 -30.5 114.4375 C-32.3046875 113.10546875 -32.3046875 113.10546875 -33.5 111.4375 C-33.9375 108.4375 -33.9375 108.4375 -33.5 105.4375 C-30.21996707 102.0344787 -26.45071727 101.73478885 -21.9609375 101.26953125 C-21.23887115 101.18499191 -20.51680481 101.10045258 -19.77285767 101.01335144 C-17.4747309 100.74721739 -15.17508958 100.49853478 -12.875 100.25 C-11.32018432 100.07208013 -9.76549462 99.89305561 -8.2109375 99.71289062 C2.92118224 98.4375 2.92118224 98.4375 5.5 98.4375 C5.5 95.7975 5.5 93.1575 5.5 90.4375 C1.56627636 88.47063818 -2.62780367 89.20267791 -6.75 90.3125 C-9.64415097 91.390341 -9.64415097 91.390341 -12.5 93.4375 C-18.00246903 94.77039623 -23.62006003 94.65706789 -29.25 94.6875 C-30.65765625 94.7184375 -30.65765625 94.7184375 -32.09375 94.75 C-40.23155724 94.79496026 -47.27573929 93.2243777 -54.5 89.4375 C-54.83 90.0975 -55.16 90.7575 -55.5 91.4375 C-56.04527344 91.24414062 -56.59054688 91.05078125 -57.15234375 90.8515625 C-57.90644531 90.59117188 -58.66054687 90.33078125 -59.4375 90.0625 C-60.16839844 89.80726562 -60.89929688 89.55203125 -61.65234375 89.2890625 C-69.30628598 87.00022929 -76.5839024 86.07900848 -84.5625 85.8125 C-85.52349609 85.77382812 -86.48449219 85.73515625 -87.47460938 85.6953125 C-89.81622814 85.60211374 -92.15786037 85.51630815 -94.5 85.4375 C-93.51 86.9225 -93.51 86.9225 -92.5 88.4375 C-92.23609849 92.74789135 -92.84529148 94.57146973 -95.47265625 98.046875 C-103.56364256 107.1508791 -103.56364256 107.1508791 -107.76953125 107.7734375 C-113.57047665 107.86254572 -117.08386965 107.55922166 -121.5 103.4375 C-124.23585932 100.29126178 -126.79099199 97.25410256 -128.5 93.4375 C-128.19140625 89.61328125 -128.19140625 89.61328125 -127.5 86.4375 C-139.94942682 86.00167787 -150.78261037 85.80634124 -162.5 90.4375 C-163.82711192 90.79479936 -165.15858186 91.13835746 -166.5 91.4375 C-166.35834107 89.04135425 -166.21181159 86.64567103 -166.0625 84.25 C-166.00352539 83.23969727 -166.00352539 83.23969727 -165.94335938 82.20898438 C-165.71072435 78.54050898 -165.32792989 75.02055794 -164.5 71.4375 C-165.098125 71.210625 -165.69625 70.98375 -166.3125 70.75 C-169.25281326 68.98581204 -170.18779779 67.61441061 -171.5 64.4375 C-171.60070079 58.69755516 -169.99014291 55.35747628 -167.1875 50.375 C-165.02169668 46.55851301 -165.02169668 46.55851301 -164.78515625 42.359375 C-165.84548587 40.45335738 -167.0031814 39.0239718 -168.5 37.4375 C-169.58462315 36.18861901 -170.66795457 34.93861502 -171.75 33.6875 C-172.27078125 33.13578125 -172.7915625 32.5840625 -173.328125 32.015625 C-174.5 30.4375 -174.5 30.4375 -174.5 27.4375 C-172.52 27.7675 -170.54 28.0975 -168.5 28.4375 C-168.21125 29.38625 -167.9225 30.335 -167.625 31.3125 C-166.73174891 34.48961578 -166.73174891 34.48961578 -164.5 36.4375 C-163.18 36.4375 -161.86 36.4375 -160.5 36.4375 C-160.34144531 35.89222656 -160.18289062 35.34695312 -160.01953125 34.78515625 C-156.39786748 23.07977887 -150.11567642 15.05317642 -141.5 6.4375 C-146.12 2.4775 -150.74 -1.4825 -155.5 -5.5625 C-152.93308797 -8.12941203 -151.76402127 -7.83275507 -148.1875 -8.125 C-141.68632305 -9.01380479 -136.33184924 -11.17289593 -130.375 -13.875 C-87.83324247 -33.08902039 -37.58511386 -27.5193217 0 0 Z " fill="#28848D" transform="translate(205.5,24.5625)"/>
<path d="M0 0 C23.77423087 18.6622515 39.30291216 42.49174132 47.5 71.4375 C47.84160156 72.61570312 48.18320313 73.79390625 48.53515625 75.0078125 C54.71926451 101.18241023 51.98753404 134.44035136 39.5 158.4375 C37.89477539 160.17163086 37.89477539 160.17163086 36.5 161.4375 C33.1619618 134.91017766 30.13265084 108.35706298 27.28591919 81.77256775 C26.81730106 77.42643869 26.33640995 73.08169127 25.85632324 68.73681641 C25.48557714 65.30395387 25.1393787 61.86908793 24.79394531 58.43359375 C24.55335952 56.17441251 24.31216982 53.91529547 24.0703125 51.65625 C23.97185028 50.61633911 23.87338806 49.57642822 23.77194214 48.50500488 C22.95542402 41.13334452 21.46400343 37.18462513 15.9375 32.0625 C7.48008668 28.06445007 -3.86398687 30.82290616 -12.875 31.8125 C-14.74091797 32.00199219 -14.74091797 32.00199219 -16.64453125 32.1953125 C-17.84207031 32.32421875 -19.03960937 32.453125 -20.2734375 32.5859375 C-21.35028809 32.70114746 -22.42713867 32.81635742 -23.53662109 32.93505859 C-27.83423889 33.66372043 -30.88144638 35.02513092 -34.5 37.4375 C-37.6875 37.5625 -37.6875 37.5625 -40.5 37.4375 C-40.66681109 40.35402174 -40.66681109 40.35402174 -40.5 43.4375 C-38.52510863 45.85520987 -38.52510863 45.85520987 -34.7265625 45.66015625 C-27.19974745 45.49299409 -19.73245025 44.3665948 -12.2734375 43.41601562 C-0.60152433 42.01564658 -0.60152433 42.01564658 4.5 43.4375 C6.5 46.4375 6.5 46.4375 6.3125 49 C5.5 51.4375 5.5 51.4375 2.5 53.4375 C-0.19921875 53.8515625 -0.19921875 53.8515625 -3.1875 54.0625 C-4.67830078 54.17464844 -4.67830078 54.17464844 -6.19921875 54.2890625 C-7.33810547 54.36253906 -7.33810547 54.36253906 -8.5 54.4375 C-8.809375 53.468125 -9.11875 52.49875 -9.4375 51.5 C-10.19523342 48.59684208 -10.19523342 48.59684208 -11.5 47.4375 C-13.04565084 47.53219402 -14.58738537 47.69130268 -16.125 47.875 C-30.44727487 49.27184085 -42.90950759 49.76028737 -54.5 40.4375 C-51.83333333 36.4375 -49.16666667 32.4375 -46.5 28.4375 C-48.48 28.1075 -50.46 27.7775 -52.5 27.4375 C-52.5825 28.530625 -52.665 29.62375 -52.75 30.75 C-53.5 34.4375 -53.5 34.4375 -55.3125 36.4375 C-57.5 37.4375 -57.5 37.4375 -59.546875 37.25 C-61.5 36.4375 -61.5 36.4375 -62.37109375 34.6875 C-62.55800781 33.945 -62.74492187 33.2025 -62.9375 32.4375 C-66.14032181 21.67056711 -72.67253869 14.26496131 -80.5 6.4375 C-75.88 2.4775 -71.26 -1.4825 -66.5 -5.5625 C-71.68980804 -8.15740402 -75.78714578 -8.72292351 -81.5 -7.5625 C-84.37417983 -5.73293311 -84.37417983 -5.73293311 -87.0625 -3.4375 C-91.87336389 0.41389385 -91.87336389 0.41389385 -94.78125 0.5234375 C-96.36476401 0.11671301 -97.93654003 -0.33747889 -99.49609375 -0.828125 C-103.56452186 -1.82274722 -107.45212118 -1.82269329 -111.625 -1.8125 C-112.37724854 -1.82087891 -113.12949707 -1.82925781 -113.90454102 -1.83789062 C-117.77805323 -1.82091457 -121.00875461 -1.48567756 -124.7109375 -0.31640625 C-128.5 0.4375 -128.5 0.4375 -131.46875 -1.01171875 C-132.3040625 -1.75035156 -133.139375 -2.48898438 -134 -3.25 C-134.8559375 -3.97574219 -135.711875 -4.70148437 -136.59375 -5.44921875 C-138.5 -7.5625 -138.5 -7.5625 -138.5 -10.5625 C-92.61162627 -31.27136295 -41.53840503 -30.41386904 0 0 Z " fill="#7EE7EE" transform="translate(205.5,24.5625)"/>
<path d="M0 0 C2.28773461 0.85790048 4.51653713 1.73204299 6.65625 2.91796875 C11.98756347 5.86600438 17.27945178 7.11311694 23.2421875 8.2890625 C26 9 26 9 28 11 C28.3125 14 28.3125 14 28 17 C23.58838389 19.94107741 20.06495763 18.99217663 15 18 C11.25956715 16.83641447 7.62521823 15.48179072 4 14 C6.22541615 20.30357111 9.86459029 23.28266106 15.66015625 26.45703125 C20.84127461 28.92999971 25.32012657 30.39575815 31 31 C33 33 33 33 33.3125 35.4375 C33 38 33 38 31.9375 39.8125 C28.94451401 41.64691077 26.35086644 41.56048665 23 41 C18.00455644 39.51392531 13.34820551 37.89880367 9 35 C10.58029919 40.35430317 11.98785676 44.89603512 16.8125 48.0625 C20.46368982 50.01435101 23.87891572 50.58789157 28 51 C28.66 51.66 29.32 52.32 30 53 C29.75 56.5625 29.75 56.5625 29 60 C24.9347162 62.0326419 20.24830408 61.17904475 16 60 C16.2165625 60.68707031 16.433125 61.37414062 16.65625 62.08203125 C16.9346875 62.98308594 17.213125 63.88414062 17.5 64.8125 C17.7784375 65.70582031 18.056875 66.59914063 18.34375 67.51953125 C19 70 19 70 19 73 C-12.56316145 81.72139987 -48.63280866 76.10020302 -76.95751953 60.32519531 C-84.55008051 55.90204535 -91.49968221 50.93457077 -98 45 C-98.77730469 44.41992188 -99.55460937 43.83984375 -100.35546875 43.2421875 C-102 41 -102 41 -101.99609375 37.6796875 C-100.90560437 31.74731526 -99.23649779 25.92274341 -97.61645508 20.11621094 C-97.05864373 18.11113851 -96.5142332 16.10273489 -95.97070312 14.09375 C-95.62072266 12.82789063 -95.27074219 11.56203125 -94.91015625 10.2578125 C-94.59183838 9.1042627 -94.27352051 7.95071289 -93.94555664 6.76220703 C-93 4 -93 4 -91 2 C-90.50628906 2.4846875 -90.01257813 2.969375 -89.50390625 3.46875 C-85.54090292 5.89230274 -81.27081169 5.47075527 -76.75585938 5.52734375 C-71.34958425 5.69801539 -71.34958425 5.69801539 -69.25 7.51171875 C-68.8375 8.00285156 -68.425 8.49398437 -68 9 C-63.42590939 9.36302306 -59.93606919 9.62404613 -56 7 C-55.0234375 8.79036458 -54.046875 10.58072917 -53.0703125 12.37109375 C-52.08589976 14.16618315 -52.08589976 14.16618315 -50 15 C-44.39065035 15.59779862 -44.39065035 15.59779862 -39.5625 13.25 C-38.05601102 11.08065587 -37.37048807 9.5934165 -37 7 C-36.319375 7.33 -35.63875 7.66 -34.9375 8 C-31.39644353 9.20546603 -28.72083033 9.3382573 -25 9 C-24.13375 8.26330078 -24.13375 8.26330078 -23.25 7.51171875 C-20.04678202 5.35955667 -17.38474871 5.59091573 -13.5625 5.5 C-8.45361154 5.378239 -5.12714166 5.14742766 -1 2 C-0.67 1.34 -0.34 0.68 0 0 Z " fill="#28858E" transform="translate(141,180)"/>
<path d="M0 0 C0.74967041 -0.00056396 1.49934082 -0.00112793 2.27172852 -0.00170898 C8.1239806 0.11440965 12.66925782 1.25893441 17.6875 4.375 C18.6775 4.87 18.6775 4.87 19.6875 5.375 C19.6875 6.035 19.6875 6.695 19.6875 7.375 C15.3975 8.035 11.1075 8.695 6.6875 9.375 C6.6875 10.035 6.6875 10.695 6.6875 11.375 C8.81769568 13.32377792 10.95711272 15.17302997 13.1875 17 C14.11755859 17.7734375 14.11755859 17.7734375 15.06640625 18.5625 C16.6024277 19.83857936 18.14441764 21.10746806 19.6875 22.375 C18.93339844 23.12652344 18.17929687 23.87804687 17.40234375 24.65234375 C8.88968099 33.18950338 3.35603781 41.7665752 -0.3125 53.375 C-2.9760969 53.01505447 -4.89433452 52.66338998 -7.125 51.125 C-8.70614795 48.79488723 -8.53587696 47.12998245 -8.3125 44.375 C-11.2825 43.88 -11.2825 43.88 -14.3125 43.375 C-11.21092047 49.20596952 -7.45693819 54.24101899 -3.3125 59.375 C-3.56644531 59.94347656 -3.82039063 60.51195312 -4.08203125 61.09765625 C-4.79952096 62.70730546 -5.51145257 64.31943998 -6.21875 65.93359375 C-6.87503001 67.39850449 -7.55519708 68.85354384 -8.28125 70.28515625 C-10.45345959 74.69997112 -10.70935304 77.660621 -9.3125 82.375 C-8.47460938 83.05433594 -7.63671875 83.73367187 -6.7734375 84.43359375 C-3.15416878 88.7594816 -3.65114327 92.36041855 -3.9375 97.8125 C-3.92976563 99.2056543 -3.92976563 99.2056543 -3.921875 100.62695312 C-4.20800454 107.3271531 -4.20800454 107.3271531 -7.09277344 110.06396484 C-8.63137483 111.04091309 -10.19998019 111.97169483 -11.79052734 112.86157227 C-16.27211246 115.55095718 -19.68905814 119.39930934 -23.3125 123.125 C-24.07433594 123.89199219 -24.83617188 124.65898437 -25.62109375 125.44921875 C-30.8756821 130.44971681 -30.8756821 130.44971681 -32.625 137.25 C-32.58037499 140.32354744 -32.43715875 141.19493736 -30.625 143.8125 C-28.12624721 145.50084648 -26.29002446 146.04416395 -23.3125 146.375 C-23.38210937 147.38820312 -23.38210937 147.38820312 -23.453125 148.421875 C-23.72477618 153.93076337 -23.72477618 153.93076337 -21.875 159 C-18.07592931 161.03852574 -14.53464379 160.69978029 -10.3125 160.375 C-9.879375 161.48875 -9.44625 162.6025 -9 163.75 C-7.61338881 167.55012334 -7.61338881 167.55012334 -4.3125 169.375 C-1.98862053 169.76887788 0.34543749 170.10986085 2.6875 170.375 C4.21742716 175.17208869 2.96790805 179.07702146 1.59765625 183.73828125 C1.37428085 184.53026413 1.15090546 185.32224701 0.92076111 186.13822937 C0.20756379 188.65774551 -0.52096303 191.17252678 -1.25 193.6875 C-1.73734705 195.3987987 -2.22368681 197.1103846 -2.70898438 198.82226562 C-3.89850972 203.00992818 -5.10179898 207.19341278 -6.3125 211.375 C-28.54573183 192.65389639 -42.00453904 164.09508318 -45.3125 135.375 C-45.62460518 130.20753922 -45.7033567 125.05048969 -45.6875 119.875 C-45.68662384 119.17323639 -45.68574768 118.47147278 -45.68484497 117.7484436 C-45.59110073 94.90047347 -40.35637649 73.00695985 -28.3125 53.375 C-28.91578125 52.67503906 -29.5190625 51.97507813 -30.140625 51.25390625 C-35.63767747 43.96734569 -38.19666678 35.17416887 -37.71875 26.09375 C-36.74954877 19.60755714 -34.25157928 15.86400423 -29.1875 11.75 C-19.8860862 5.05359501 -11.67929017 -0.02207805 0 0 Z " fill="#7EE7EE" transform="translate(45.3125,8.625)"/>
<path d="M0 0 C4.58575047 4.13836018 7.47143283 7.55042647 8.1315918 13.703125 C8.23249619 14.62453781 8.33340057 15.54595062 8.43736267 16.49528503 C8.54440018 17.50746597 8.65143768 18.51964691 8.76171875 19.5625 C8.87725601 20.6232222 8.99279327 21.6839444 9.11183167 22.77680969 C9.36265741 25.08050286 9.61189281 27.38436961 9.85974121 29.68838501 C10.52092514 35.82843016 11.19536985 41.96700895 11.87109375 48.10546875 C12.00971832 49.36554245 12.1483429 50.62561615 12.29116821 51.9238739 C13.71852786 64.83387719 15.25140753 77.73057065 16.8125 90.625 C16.99913712 92.16667847 16.99913712 92.16667847 17.18954468 93.73950195 C17.66067161 97.62797012 18.13200155 101.51641169 18.60566711 105.40457153 C19.12800606 109.69746849 19.64428916 113.99086038 20.14257812 118.28662109 C20.23255066 119.06160446 20.32252319 119.83658783 20.41522217 120.63505554 C20.65294257 122.6916762 20.88857346 124.7485381 21.12402344 126.80541992 C21.40586127 129.05965181 21.7289982 131.30930933 22.10327148 133.55004883 C22.67491435 136.98871924 22.80771532 140.32786183 22.875 143.8125 C22.93107422 145.71515625 22.93107422 145.71515625 22.98828125 147.65625 C22.35496299 153.0946527 19.92169521 156.08275195 15.9375 159.6875 C11.34715518 161.89766602 7.56782944 162.22327988 2.5625 161.3125 C-2.80706322 158.95830717 -5.22322554 155.70419862 -7.4375 150.3125 C-7.93257429 146.93821626 -8.0166936 143.57835032 -8.09765625 140.171875 C-8.13306015 139.20848206 -8.16846405 138.24508911 -8.2049408 137.25250244 C-8.31637164 134.18945059 -8.40976248 131.12624417 -8.5 128.0625 C-8.59531446 124.9845872 -8.69469944 121.90703706 -8.80577087 118.82965088 C-8.87439726 116.91798329 -8.93372285 115.00595507 -8.98292542 113.09368896 C-9.02823647 111.80159515 -9.02823647 111.80159515 -9.07446289 110.48339844 C-9.09650284 109.72428162 -9.11854279 108.96516479 -9.14125061 108.18304443 C-9.28804672 106.07009202 -9.28804672 106.07009202 -11.4375 104.3125 C-16.05251157 103.9768628 -20.04119001 104.37751714 -24.5625 105.3125 C-31.0507912 106.56653948 -37.87800491 107.33094792 -44.4375 106.3125 C-46.3515625 104.44921875 -46.3515625 104.44921875 -47.4375 102.3125 C-47.30233438 99.54160474 -46.91445881 97.93918374 -45.23046875 95.7265625 C-42.81161664 93.81888393 -40.92343331 93.65100719 -37.875 93.25 C-36.73160156 93.09402344 -35.58820313 92.93804687 -34.41015625 92.77734375 C-31.50208228 92.43706764 -28.59582932 92.11622099 -25.68359375 91.81640625 C-24.87672119 91.73205322 -24.06984863 91.6477002 -23.23852539 91.56079102 C-21.64095503 91.39728804 -20.04245437 91.24259684 -18.44311523 91.09741211 C-14.72695808 90.72713767 -12.59975622 90.42067081 -9.4375 88.3125 C-9.02083333 85.8125 -9.02083333 85.8125 -9.4375 83.3125 C-11.41006231 80.90093462 -11.41006231 80.90093462 -15.1875 81.0625 C-19.27599004 81.14125101 -23.21163978 81.68639764 -27.25 82.3125 C-40.13939282 84.2556948 -40.13939282 84.2556948 -46.4375 83.3125 C-48.2421875 81.98046875 -48.2421875 81.98046875 -49.4375 80.3125 C-49.875 77.3125 -49.875 77.3125 -49.4375 74.3125 C-46.15746707 70.9094787 -42.38821727 70.60978885 -37.8984375 70.14453125 C-36.81533798 70.01772224 -36.81533798 70.01772224 -35.71035767 69.88835144 C-33.4122309 69.62221739 -31.11258958 69.37353478 -28.8125 69.125 C-27.25768432 68.94708013 -25.70299462 68.76805561 -24.1484375 68.58789062 C-13.01631776 67.3125 -13.01631776 67.3125 -10.4375 67.3125 C-10.4375 64.6725 -10.4375 62.0325 -10.4375 59.3125 C-13.20202033 57.93023984 -15.4836363 58.21724613 -18.5625 58.25 C-19.65820312 58.25902344 -20.75390625 58.26804688 -21.8828125 58.27734375 C-23.14738281 58.29474609 -23.14738281 58.29474609 -24.4375 58.3125 C-24.746875 57.508125 -25.05625 56.70375 -25.375 55.875 C-26.20085345 53.42169595 -26.20085345 53.42169595 -27.4375 52.3125 C-29.02475993 52.40640278 -30.60824685 52.56514522 -32.1875 52.75 C-38.61502235 53.40879993 -44.98265772 53.40485863 -51.4375 53.3125 C-49.96255642 49.54733658 -49.96255642 49.54733658 -47.66455078 48.51953125 C-40.6148355 47.22992972 -33.57625929 46.6249057 -26.43359375 46.1015625 C-17.86393049 45.81810213 -17.86393049 45.81810213 -10.4375 42.3125 C-10.1874227 39.85440002 -10.1874227 39.85440002 -10.4375 37.3125 C-12.32128061 34.98308121 -12.32128061 34.98308121 -15.44140625 35.15234375 C-16.61574219 35.18457031 -17.79007813 35.21679688 -19 35.25 C-21.14525386 35.30404254 -23.29166285 35.33293654 -25.4375 35.3125 C-25.9325 34.8175 -25.9325 34.8175 -26.4375 34.3125 C-28.51012076 34.22482888 -30.58570294 34.20554127 -32.66015625 34.21484375 C-33.92021484 34.21806641 -35.18027344 34.22128906 -36.47851562 34.22460938 C-37.81901109 34.23296597 -39.15950588 34.24143093 -40.5 34.25 C-41.84439942 34.2550134 -43.1888006 34.25957658 -44.53320312 34.26367188 C-47.83467941 34.27550512 -51.13606803 34.29199029 -54.4375 34.3125 C-54.48004356 32.31295254 -54.47830783 30.31208364 -54.4375 28.3125 C-52.92494818 26.79994818 -51.5393694 27.11689461 -49.4296875 27.03125 C-48.60726562 26.99386719 -47.78484375 26.95648438 -46.9375 26.91796875 C-46.07125 26.88316406 -45.205 26.84835938 -44.3125 26.8125 C-34.11653137 27.09788816 -34.11653137 27.09788816 -25.4375 23.3125 C-22.3980229 22.72209797 -19.35697994 22.35710077 -16.28515625 21.97265625 C-13.30954921 21.28283788 -12.15485043 20.80935701 -10.4375 18.3125 C-10.66793864 15.65783951 -10.66793864 15.65783951 -11.4375 13.3125 C-18.34881849 11.78228139 -24.85460531 12.86328349 -31.8125 13.75 C-53.01235682 16.3999821 -53.01235682 16.3999821 -56.16552734 13.99389648 C-58.05236072 11.49972729 -57.63946211 9.34193164 -57.4375 6.3125 C-55.4375 5.3125 -55.4375 5.3125 -51.9375 4.875 C-48.38983997 4.6554704 -48.38983997 4.6554704 -46.4375 2.3125 C-43.55859375 1.75 -43.55859375 1.75 -39.875 1.3125 C-39.21532227 1.23273926 -38.55564453 1.15297852 -37.87597656 1.07080078 C-36.46249005 0.90082456 -35.04856796 0.73443953 -33.63427734 0.57128906 C-31.43718795 0.31246324 -29.24421726 0.03021938 -27.05078125 -0.2578125 C-6.05220967 -2.97108475 -6.05220967 -2.97108475 0 0 Z " fill="#F25C84" transform="translate(221.4375,55.6875)"/>
<path d="M0 0 C0.28875 0.598125 0.5775 1.19625 0.875 1.8125 C2.04742026 4.19327792 2.04742026 4.19327792 4 7 C11.57358207 7.95828998 19.09717287 6.97952503 26.5234375 5.45703125 C30.16339861 4.78530341 33.3057061 4.67015233 37 5 C39.07516043 6.5379787 39.88406166 7.4458397 40.41650391 9.99079895 C40.44623291 11.12614326 40.44623291 11.12614326 40.4765625 12.28442383 C40.50669434 13.14574417 40.53682617 14.00706451 40.56787109 14.89448547 C40.58672363 15.82262558 40.60557617 16.75076569 40.625 17.70703125 C40.67454834 19.14425789 40.67454834 19.14425789 40.72509766 20.61051941 C40.83040001 23.67759087 40.91734084 26.74473979 41 29.8125 C41.10909746 33.84054328 41.23657947 37.86740117 41.375 41.89453125 C41.39385254 42.81659866 41.41270508 43.73866608 41.43212891 44.68867493 C41.65377029 51.09386652 42.7141824 55.51825518 47.1875 60.375 C47.785625 60.91125 48.38375 61.4475 49 62 C41.28154968 70.21910656 33.59837808 76.98411515 24 83 C22.92234375 83.68835938 21.8446875 84.37671875 20.734375 85.0859375 C11.12924126 90.9160303 -1.53124852 98 -13 98 C-14.98 91.565 -14.98 91.565 -17 85 C-15.35 85.33 -13.7 85.66 -12 86 C-10.39696373 86.06371368 -8.79162328 86.08644214 -7.1875 86.0625 C-6.39730469 86.05347656 -5.60710937 86.04445313 -4.79296875 86.03515625 C-4.20128906 86.02355469 -3.60960937 86.01195312 -3 86 C-2.95758277 83.66705225 -2.95907063 81.33297433 -3 79 C-4.48118246 77.51881754 -6.00847498 77.64015751 -8.0625 77.3125 C-13.32296556 76.15284465 -17.45373873 74.13585972 -21 70 C-22.17022179 67.02346075 -22.71746206 64.17855187 -23 61 C-22.360625 61.268125 -21.72125 61.53625 -21.0625 61.8125 C-11.83746949 65.50504362 -11.83746949 65.50504362 -2 66 C0.26839983 64.16734675 0.26839983 64.16734675 0.1875 61.4375 C0.27003323 59.05310277 0.27003323 59.05310277 -1 58 C-2.45516105 57.75148484 -3.91440095 57.52675191 -5.375 57.3125 C-14.68074243 55.48862774 -21.81140116 50.9738982 -27.953125 43.83203125 C-28.29859375 43.22746094 -28.6440625 42.62289062 -29 42 C-28.67 41.01 -28.34 40.02 -28 39 C-27.32195312 39.27714844 -26.64390625 39.55429688 -25.9453125 39.83984375 C-19.68941648 42.27461769 -13.77017001 44.06624432 -7 44 C-6.01 43.505 -6.01 43.505 -5 43 C-5 41.02 -5 39.04 -5 37 C-6.29093133 36.56033498 -7.58280836 36.12344701 -8.875 35.6875 C-9.69484375 35.41035156 -10.5146875 35.13320312 -11.359375 34.84765625 C-13.08623784 34.29332306 -14.82637175 33.77838212 -16.578125 33.30859375 C-22.35396017 31.75833124 -26.37232368 29.82286305 -31 26 C-31 25.67 -31 25.34 -31 25 C-30.37351563 24.89042969 -29.74703125 24.78085938 -29.1015625 24.66796875 C-28.28429687 24.50941406 -27.46703125 24.35085937 -26.625 24.1875 C-25.81289062 24.03667969 -25.00078125 23.88585937 -24.1640625 23.73046875 C-21.64179359 23.12455058 -21.64179359 23.12455058 -20 20 C-19.60986284 18.0103005 -19.26797351 16.00980131 -19 14 C-18.39671875 14.08378906 -17.7934375 14.16757813 -17.171875 14.25390625 C-16.37265625 14.35574219 -15.5734375 14.45757812 -14.75 14.5625 C-13.96109375 14.66691406 -13.1721875 14.77132812 -12.359375 14.87890625 C-9.93653563 15.00325728 -8.24988135 14.91090329 -6 14 C-4.70278551 10.10835652 -4.86966007 7.10570774 -5 3 C-5.33 2.34 -5.66 1.68 -6 1 C-4.02 0.67 -2.04 0.34 0 0 Z " fill="#7EE6EE" transform="translate(173,154)"/>
<path d="M0 0 C0.65742187 0.4846875 1.31484375 0.969375 1.9921875 1.46875 C6.32798173 3.67606342 10.54429022 3.46745051 15.29296875 3.52734375 C20.65070421 3.69758955 20.65070421 3.69758955 22.74609375 5.51171875 C23.15988281 6.00285156 23.57367188 6.49398437 24 7 C28.57409061 7.36302306 32.06393081 7.62404613 36 5 C36.9765625 6.79036458 37.953125 8.58072917 38.9296875 10.37109375 C39.91410024 12.16618315 39.91410024 12.16618315 42 13 C47.60934965 13.59779862 47.60934965 13.59779862 52.4375 11.25 C53.94398898 9.08065587 54.62951193 7.5934165 55 5 C55.680625 5.33 56.36125 5.66 57.0625 6 C60.60355647 7.20546603 63.27916967 7.3382573 67 7 C67.56074219 6.51273438 68.12148437 6.02546875 68.69921875 5.5234375 C72.02488727 3.32138194 75.38174063 3.43210166 79.25 3.3125 C79.99507813 3.27833984 80.74015625 3.24417969 81.5078125 3.20898438 C83.33802492 3.12685946 85.16898669 3.06174347 87 3 C88.83550811 7.21170852 89.31232878 9.50058704 88 14 C86.0625 16.875 86.0625 16.875 84 19 C83.34 19 82.68 19 82 19 C82.495 19.99 82.495 19.99 83 21 C83.37593152 25.98109259 83.1765161 29.05673864 80 33 C76.74327158 35.71394035 75.48043713 36.03938009 71.1875 35.6875 C70.135625 35.460625 69.08375 35.23375 68 35 C67.9175 35.598125 67.835 36.19625 67.75 36.8125 C66.75215965 39.7228677 65.66229642 40.4889669 63 42 C57.83263394 43.57267663 55.67196759 42.3359838 51 40 C48.9837767 40.71563266 48.9837767 40.71563266 47 42 C42.62729967 43.13366305 40.78365684 43.42196907 36.75 41.25 C34 39 34 39 32.625 37.3125 C30.26288792 35.40464024 27.90993485 35.49437093 24.9375 35.30859375 C23 35 23 35 20 33 C20 32.34 20 31.68 20 31 C19.34 31 18.68 31 18 31 C18.04125 31.95003906 18.0825 32.90007812 18.125 33.87890625 C18.125 38.7054011 17.05551289 43.24831267 16 47.9375 C15.80921875 48.81212891 15.6184375 49.68675781 15.421875 50.58789062 C14.95436066 52.72676873 14.48028183 54.86395935 14 57 C6.79248594 52.95152402 0.25103932 48.41756741 -6 43 C-7.16402344 42.13761719 -7.16402344 42.13761719 -8.3515625 41.2578125 C-10 39 -10 39 -10 35.6796875 C-8.90998424 29.74240467 -7.19940319 23.92219242 -5.56152344 18.11621094 C-4.99587421 16.11036957 -4.43868622 14.10232008 -3.8828125 12.09375 C-1.15030962 2.30061924 -1.15030962 2.30061924 0 0 Z " fill="#217B7F" transform="translate(49,182)"/>
<path d="M0 0 C3.03796235 1.71938929 5.98734017 3.52217863 8.91796875 5.41796875 C9.55089844 5.81886719 10.18382812 6.21976563 10.8359375 6.6328125 C15.45703003 9.97092818 18.22874222 15.07373438 19.91796875 20.41796875 C20.3832749 26.36421877 19.52793785 30.65108612 17.23046875 36.10546875 C16.98619141 36.74291016 16.74191406 37.38035156 16.49023438 38.03710938 C14.70285079 42.42185543 12.56745725 45.40714074 8.91796875 48.41796875 C5.60546875 48.73046875 5.60546875 48.73046875 2.91796875 48.41796875 C2.75115766 51.33449049 2.75115766 51.33449049 2.91796875 54.41796875 C4.89286012 56.83567862 4.89286012 56.83567862 8.69140625 56.640625 C16.2182213 56.47346284 23.6855185 55.34706355 31.14453125 54.39648438 C42.81644442 52.99611533 42.81644442 52.99611533 47.91796875 54.41796875 C49.91796875 57.41796875 49.91796875 57.41796875 49.73046875 59.98046875 C48.91796875 62.41796875 48.91796875 62.41796875 45.91796875 64.41796875 C43.21875 64.83203125 43.21875 64.83203125 40.23046875 65.04296875 C38.73966797 65.15511719 38.73966797 65.15511719 37.21875 65.26953125 C36.45949219 65.31851563 35.70023437 65.3675 34.91796875 65.41796875 C34.60859375 64.44859375 34.29921875 63.47921875 33.98046875 62.48046875 C33.22273533 59.57731083 33.22273533 59.57731083 31.91796875 58.41796875 C30.37231791 58.51266277 28.83058338 58.67177143 27.29296875 58.85546875 C12.97069388 60.2523096 0.50846116 60.74075612 -11.08203125 51.41796875 C-8.41536458 47.41796875 -5.74869792 43.41796875 -3.08203125 39.41796875 C-6.05203125 38.92296875 -6.05203125 38.92296875 -9.08203125 38.41796875 C-9.16453125 39.51109375 -9.24703125 40.60421875 -9.33203125 41.73046875 C-10.08203125 45.41796875 -10.08203125 45.41796875 -11.89453125 47.41796875 C-14.08203125 48.41796875 -14.08203125 48.41796875 -16.12890625 48.23046875 C-18.08203125 47.41796875 -18.08203125 47.41796875 -18.953125 45.66796875 C-19.14003906 44.92546875 -19.32695312 44.18296875 -19.51953125 43.41796875 C-22.72235306 32.65103586 -29.25456994 25.24543006 -37.08203125 17.41796875 C-32.46203125 13.45796875 -27.84203125 9.49796875 -23.08203125 5.41796875 C-26.70701095 3.6054789 -28.45462709 3.0990796 -32.33203125 2.79296875 C-33.2240625 2.71820312 -34.11609375 2.6434375 -35.03515625 2.56640625 C-36.04835938 2.49292969 -36.04835938 2.49292969 -37.08203125 2.41796875 C-27.55497916 -8.238894 -11.40808666 -5.85586197 0 0 Z " fill="#2A868F" transform="translate(162.08203125,13.58203125)"/>
<path d="M0 0 C0.72832031 0.00322266 1.45664063 0.00644531 2.20703125 0.00976562 C2.92761719 -0.00634766 3.64820313 -0.02246094 4.390625 -0.0390625 C8.76242989 -0.0430881 11.08522495 0.40462862 14.33203125 3.32226562 C17.4832145 4.04271929 17.4832145 4.04271929 20.33203125 4.32226562 C20.75520833 6.34049479 21.17838542 8.35872396 21.6015625 10.37695312 C22.25511963 12.69273112 22.25511963 12.69273112 25.33203125 14.32226562 C27.00349587 14.18391805 28.67061476 13.98917633 30.33203125 13.75976562 C34.57065897 13.62431015 36.0212733 14.08086979 39.4296875 16.72851562 C41.42032544 18.67816604 43.27876103 20.72554439 45.1171875 22.81835938 C47.08061624 25.35224232 47.08061624 25.35224232 49.33203125 26.32226562 C48.43064712 29.35419407 47.75190476 30.99647488 45.22265625 32.95898438 C40.57246092 35.15211704 35.89707026 34.79544606 30.828125 34.91601562 C27.16233177 35.34198489 26.05117681 36.00370848 23.33203125 38.32226562 C18.30564956 38.87059817 15.42288932 38.29743513 11.33203125 35.32226562 C11.24953125 36.25039062 11.16703125 37.17851562 11.08203125 38.13476562 C10.33203125 41.32226562 10.33203125 41.32226562 8.76953125 43.19726562 C5.27970839 44.8079531 2.05408838 45.12883466 -1.66796875 44.32226562 C-4.70519072 41.87928274 -6.51221308 39.55589913 -8.66796875 36.32226562 C-9.65796875 36.98226562 -10.64796875 37.64226562 -11.66796875 38.32226562 C-13.60546875 38.62304688 -13.60546875 38.62304688 -15.66796875 38.63476562 C-16.34859375 38.65152344 -17.02921875 38.66828125 -17.73046875 38.68554688 C-19.66796875 38.32226562 -19.66796875 38.32226562 -20.92578125 36.83007812 C-24.06979943 34.10902203 -28.68613831 34.88645673 -32.6875 34.8828125 C-37.64293081 34.74900664 -40.13764421 33.80413473 -43.66796875 30.32226562 C-43.35825981 24.93732635 -40.31366768 22.49759159 -36.60546875 19.00976562 C-35.7537207 18.18508789 -35.7537207 18.18508789 -34.88476562 17.34375 C-33.4880595 15.99399198 -32.07918038 14.65685038 -30.66796875 13.32226562 C-30.00796875 13.65226563 -29.34796875 13.98226562 -28.66796875 14.32226562 C-23.10505651 14.89135705 -23.10505651 14.89135705 -18.23046875 12.69726562 C-16.38031046 9.88502502 -15.97045954 7.64966435 -15.66796875 4.32226562 C-12.640625 3.63867188 -12.640625 3.63867188 -9.61328125 2.95507812 C-0.54622283 0.0055531 -0.54622283 0.0055531 0 0 Z " fill="#DCE6E7" transform="translate(92.66796875,151.677734375)"/>
<path d="M0 0 C2.02302247 1.7146474 2.02302247 1.7146474 4 3 C5.85266073 2.70514846 5.85266073 2.70514846 8 2 C10.67317102 1.89718573 13.32353204 1.9553922 16 2 C15.34 2.639375 14.68 3.27875 14 3.9375 C12.99941474 4.95775969 11.99949458 5.9786718 11 7 C10.40703125 7.57363281 9.8140625 8.14726562 9.203125 8.73828125 C-7.49597884 25.9383582 -10.68597936 48.19303387 -13 71 C-11.7315625 70.69320312 -10.463125 70.38640625 -9.15625 70.0703125 C-8.44275391 69.89773926 -7.72925781 69.72516602 -6.99414062 69.54736328 C-4.8256214 68.95213555 -2.94222515 68.13296467 -1 67 C0.85522982 70.71045963 0.45268677 74.95062384 0 79 C-1.75 82.5625 -1.75 82.5625 -4 85 C-6.1875 85.6875 -6.1875 85.6875 -8 86 C-8.495 87.485 -8.495 87.485 -9 89 C-10.05058594 89.18175781 -11.10117187 89.36351563 -12.18359375 89.55078125 C-19.68333528 90.88198537 -26.8423862 92.31589483 -34 95 C-33.85834107 92.60385425 -33.71181159 90.20817103 -33.5625 87.8125 C-33.50352539 86.80219727 -33.50352539 86.80219727 -33.44335938 85.77148438 C-33.21072435 82.10300898 -32.82792989 78.58305794 -32 75 C-32.598125 74.773125 -33.19625 74.54625 -33.8125 74.3125 C-36.75281326 72.54831204 -37.68779779 71.17691061 -39 68 C-39.10070079 62.26005516 -37.49014291 58.91997628 -34.6875 53.9375 C-32.52169668 50.12101301 -32.52169668 50.12101301 -32.28515625 45.921875 C-33.34548587 44.01585738 -34.5031814 42.5864718 -36 41 C-37.08462315 39.75111901 -38.16795457 38.50111502 -39.25 37.25 C-39.77078125 36.69828125 -40.2915625 36.1465625 -40.828125 35.578125 C-42 34 -42 34 -42 31 C-40.02 31.33 -38.04 31.66 -36 32 C-35.71125 32.94875 -35.4225 33.8975 -35.125 34.875 C-34.23174891 38.05211578 -34.23174891 38.05211578 -32 40 C-30.68 40 -29.36 40 -28 40 C-27.84144531 39.45472656 -27.68289062 38.90945312 -27.51953125 38.34765625 C-23.89786748 26.64227887 -17.61567642 18.61567642 -9 10 C-13.62 6.04 -18.24 2.08 -23 -2 C-19.74478854 -5.25521146 -15.78296484 -5.36857084 -11.33984375 -6.01171875 C-6.04264341 -5.99313208 -3.59959922 -3.58289574 0 0 Z " fill="#227C80" transform="translate(73,21)"/>
<path d="M0 0 C0.74967041 -0.00056396 1.49934082 -0.00112793 2.27172852 -0.00170898 C8.1239806 0.11440965 12.66925782 1.25893441 17.6875 4.375 C18.3475 4.705 19.0075 5.035 19.6875 5.375 C19.6875 6.035 19.6875 6.695 19.6875 7.375 C15.3975 8.035 11.1075 8.695 6.6875 9.375 C6.6875 10.035 6.6875 10.695 6.6875 11.375 C8.81769568 13.32377792 10.95711272 15.17302997 13.1875 17 C14.11755859 17.7734375 14.11755859 17.7734375 15.06640625 18.5625 C16.6024277 19.83857936 18.14441764 21.10746806 19.6875 22.375 C18.93339844 23.12652344 18.17929687 23.87804687 17.40234375 24.65234375 C8.88968099 33.18950338 3.35603781 41.7665752 -0.3125 53.375 C-2.9760969 53.01505447 -4.89433452 52.66338998 -7.125 51.125 C-8.70614795 48.79488723 -8.53587696 47.12998245 -8.3125 44.375 C-11.0984186 43.70487578 -11.0984186 43.70487578 -14.3125 44.375 C-15.91707042 46.31874791 -17.0567084 48.30155387 -18.234375 50.52734375 C-19.3125 52.375 -19.3125 52.375 -21.3125 53.375 C-24.99010069 53.86534676 -26.74695729 53.74743056 -29.875 51.6875 C-35.8429108 44.82827785 -38.18602818 34.97203547 -37.71875 26.09375 C-36.74954877 19.60755714 -34.25157928 15.86400423 -29.1875 11.75 C-19.8860862 5.05359501 -11.67929017 -0.02207805 0 0 Z " fill="#28858E" transform="translate(45.3125,8.625)"/>
<path d="M0 0 C1.57104492 0.02030273 1.57104492 0.02030273 3.17382812 0.04101562 C5.72062124 0.0759032 8.26626325 0.1249113 10.8125 0.1875 C10.8125 0.5175 10.8125 0.8475 10.8125 1.1875 C9.6059375 1.17847656 8.399375 1.16945313 7.15625 1.16015625 C-3.06088984 0.9495634 -3.06088984 0.9495634 -12 5.125 C-18.81345288 12.63846516 -21.61996328 21.49443015 -21.53125 31.44140625 C-20.5661854 41.95841711 -16.10554064 51.5443135 -10.1875 60.1875 C-13.52083333 63.52083333 -16.85416667 66.85416667 -20.1875 70.1875 C-22.24609375 70.05078125 -22.24609375 70.05078125 -24.625 69.5 C-25.40746094 69.33113281 -26.18992187 69.16226563 -26.99609375 68.98828125 C-29.45372224 68.09021736 -30.58824093 67.24369024 -32.1875 65.1875 C-32.875 62 -32.875 62 -33.1875 59.1875 C-34.1775 59.6825 -34.1775 59.6825 -35.1875 60.1875 C-39.48072859 60.67352588 -41.50832639 60.64991608 -45.125 58.1875 C-47.92333809 54.11719005 -47.66578338 52.05004774 -47.1875 47.1875 C-46.8575 46.5275 -46.5275 45.8675 -46.1875 45.1875 C-47.280625 45.105 -48.37375 45.0225 -49.5 44.9375 C-53.1875 44.1875 -53.1875 44.1875 -55.125 42.625 C-56.69563868 39.02177008 -57.11529025 35.97539553 -56.1875 32.1875 C-54.30682472 29.07943665 -51.76685669 26.72436317 -49.1875 24.1875 C-48.21699975 23.15259352 -47.24977753 22.11460711 -46.28515625 21.07421875 C-33.05079707 7.02178761 -19.70142421 -0.49285154 0 0 Z " fill="#DBE6E7" transform="translate(68.1875,109.8125)"/>
<path d="M0 0 C2.25475336 0.77563094 3.53432106 1.66508393 5.32519531 3.22314453 C5.89882813 3.71621094 6.47246094 4.20927734 7.06347656 4.71728516 C7.65 5.23355469 8.23652344 5.74982422 8.84082031 6.28173828 C9.4428125 6.801875 10.04480469 7.32201172 10.66503906 7.85791016 C12.1457019 9.13880102 13.61899573 10.4282014 15.09082031 11.71923828 C14.33671875 12.47076172 13.58261719 13.22228516 12.80566406 13.99658203 C4.29300131 22.53374166 -1.24064188 31.11081348 -4.90917969 42.71923828 C-7.57277659 42.35929275 -9.49101421 42.00762827 -11.72167969 40.46923828 C-13.30282764 38.13912551 -13.13255664 36.47422073 -12.90917969 33.71923828 C-14.88917969 33.38923828 -16.86917969 33.05923828 -18.90917969 32.71923828 C-18.17581603 20.25205614 -12.88801304 9.06368034 -3.69042969 0.72314453 C-1.90917969 -0.28076172 -1.90917969 -0.28076172 0 0 Z " fill="#EDF0EE" transform="translate(49.9091796875,19.28076171875)"/>
<path d="M0 0 C7.96661684 3.7012434 11.25781569 11.24501856 14.26171875 19.05078125 C14.59429687 19.88609375 14.926875 20.72140625 15.26953125 21.58203125 C16.80280493 25.72601416 17.80470366 28.70236922 16.26171875 33.05078125 C14.61171875 33.05078125 12.96171875 33.05078125 11.26171875 33.05078125 C11.17921875 34.14390625 11.09671875 35.23703125 11.01171875 36.36328125 C10.26171875 40.05078125 10.26171875 40.05078125 8.44921875 42.05078125 C6.26171875 43.05078125 6.26171875 43.05078125 4.21484375 42.86328125 C2.26171875 42.05078125 2.26171875 42.05078125 1.390625 40.30078125 C1.20371094 39.55828125 1.01679688 38.81578125 0.82421875 38.05078125 C-2.37224174 27.30523321 -8.915538 19.84591157 -16.73828125 12.05078125 C-14.52439205 10.0106479 -12.29485906 7.99472445 -10.05078125 5.98828125 C-9.42494141 5.40755859 -8.79910156 4.82683594 -8.15429688 4.22851562 C-3.4475817 0.06393518 -3.4475817 0.06393518 0 0 Z " fill="#ECEFED" transform="translate(141.73828125,18.94921875)"/>
<path d="M0 0 C1.00595215 0.0002417 1.00595215 0.0002417 2.03222656 0.00048828 C4.07181858 -0.00387604 6.10922994 -0.04016103 8.1484375 -0.078125 C10.07816406 -0.08392578 10.07816406 -0.08392578 12.046875 -0.08984375 C13.22813965 -0.09806152 14.4094043 -0.1062793 15.62646484 -0.11474609 C19.32448678 0.4677348 20.50687774 1.39228987 22.7109375 4.37109375 C23.14912789 8.75299762 22.40248318 10.46130881 19.73046875 13.9765625 C11.67799646 23.0799284 11.67799646 23.0799284 7.44140625 23.70703125 C1.64046085 23.79613947 -1.87293215 23.49281541 -6.2890625 19.37109375 C-12.97665722 11.68035982 -12.97665722 11.68035982 -13.578125 7.234375 C-12.55578102 -1.17352288 -6.93765815 0.06268968 0 0 Z " fill="#0B5966" transform="translate(90.2890625,108.62890625)"/>
<path d="M0 0 C3.92509844 0.66848581 5.70233955 1.18155939 8.25 4.3125 C9.00023437 5.20388672 9.00023437 5.20388672 9.765625 6.11328125 C11.88411483 9.35135274 12.12195453 12.58371709 12.2109375 16.38671875 C12.23736328 17.23476074 12.26378906 18.08280273 12.29101562 18.95654297 C12.31873047 19.85775879 12.34644531 20.75897461 12.375 21.6875 C12.69495791 30.07766889 13.63970495 38.10844715 15.28125 46.3359375 C15.9780969 49.88834183 16.51813424 53.41380672 17 57 C11.72783638 56.58649697 8.72614602 55.82965008 5 52 C1.51899504 46.58960288 1.45029732 41.588813 1.26953125 35.3515625 C1.229384 34.33903412 1.18923676 33.32650574 1.14787292 32.28329468 C1.02318672 29.06419421 0.91758215 25.84479411 0.8125 22.625 C0.73107778 20.43615068 0.64840935 18.24734734 0.56445312 16.05859375 C0.36186339 10.70617754 0.17491572 5.35338821 0 0 Z " fill="#DF4D7A" transform="translate(212,160)"/>
<path d="M0 0 C2.31 0 4.62 0 7 0 C4.49671934 4.47014404 1.8891456 8.76946537 -1 13 C0.34855767 13.80118392 1.70421743 14.59041608 3.0625 15.375 C4.19365234 16.03628906 4.19365234 16.03628906 5.34765625 16.7109375 C10.94671512 19.43212959 16.06325739 20.25989805 22.25 20.1875 C24.1990625 20.16816406 24.1990625 20.16816406 26.1875 20.1484375 C30.44554958 19.98265278 34.61537725 19.55769341 38.828125 18.92578125 C41 19 41 19 42.7734375 20.32421875 C44.50026024 22.68347657 44.42838794 24.1440804 44 27 C42.9375 28.75 42.9375 28.75 41 30 C35.07813229 31.13096678 29.20366901 31.21719199 23.1875 31.25 C21.78661133 31.2809375 21.78661133 31.2809375 20.35742188 31.3125 C12.97548816 31.35348228 5.73103618 30.67190333 -0.421875 26.265625 C-2.50424706 23.27608096 -3.90896526 20.11627089 -5.25 16.75 C-5.518125 16.1003125 -5.78625 15.450625 -6.0625 14.78125 C-6.71725016 13.19114246 -7.35987282 11.59605042 -8 10 C-6.55753906 9.37158203 -6.55753906 9.37158203 -5.0859375 8.73046875 C-1.63391177 7.23169287 -1.63391177 7.23169287 -0.625 3.3125 C-0.41875 2.219375 -0.2125 1.12625 0 0 Z " fill="#247D81" transform="translate(153,52)"/>
<path d="M0 0 C-0.268125 0.515625 -0.53625 1.03125 -0.8125 1.5625 C-1.204375 2.366875 -1.59625 3.17125 -2 4 C-2.53625 4.969375 -3.0725 5.93875 -3.625 6.9375 C-6.13865851 12.91871821 -6.13087157 20.32321757 -4.23828125 26.4765625 C-2.75361683 29.61020204 -1.2816499 31.73399731 1.25 34.125 C3 36 3 36 3.5625 38.9375 C2.80057749 43.08574477 1.36344489 44.51397551 -2 47 C-5 47.625 -5 47.625 -8 47 C-14.07950548 42.99642322 -16.14987179 35.76358346 -18 29 C-18.89817015 22.58892343 -18.78648982 16.51948247 -15.4765625 10.81640625 C-12.29473013 6.90224739 -5.21521646 0 0 0 Z " fill="#217B80" transform="translate(26,15)"/>
<path d="M0 0 C0.66386719 0.27714844 1.32773438 0.55429688 2.01171875 0.83984375 C3.33623047 1.38318359 3.33623047 1.38318359 4.6875 1.9375 C5.55761719 2.29714844 6.42773438 2.65679687 7.32421875 3.02734375 C13.45006764 5.25411218 19.37207499 5.18322633 25.8125 5.1875 C27.25206055 5.20586914 27.25206055 5.20586914 28.72070312 5.22460938 C34.4973481 5.23643868 39.49124258 4.79018913 45 3 C45.66 2.34 46.32 1.68 47 1 C50.99486149 -0.141389 54.86554927 -0.22969171 59 0 C59.99 0.66 60.98 1.32 62 2 C62.38076328 4.98264571 62.6239707 7.04522716 60.93945312 9.62280273 C58.05811342 11.66882959 55.01838766 11.77463558 51.59375 12.09765625 C50.87264038 12.17745224 50.15153076 12.25724823 49.40856934 12.33946228 C47.10685 12.59289985 44.80382494 12.82903997 42.5 13.0625 C40.1964415 13.30122194 37.89352656 13.54379791 35.59143066 13.79624939 C34.15995341 13.95275349 32.72756031 14.10114324 31.29431152 14.24049377 C27.79393657 14.61834685 25.99414065 15.00390623 23 17 C22.27034634 19.56282742 22.27034634 19.56282742 22 22 C17.03694022 17.79218844 12.20669795 13.46913437 7.4296875 9.05078125 C5.05965479 6.90951695 5.05965479 6.90951695 2.1953125 5.48046875 C1.47085938 4.99191406 0.74640625 4.50335938 0 4 C0 2.68 0 1.36 0 0 Z " fill="#7FE4EB" transform="translate(150,113)"/>
<path d="M0 0 C1.96028594 0.96932462 3.90642077 1.94870175 5.82421875 3 C17.51819765 9.27601383 29.87751499 8.81769439 42.7578125 6.92578125 C45 7 45 7 46.77734375 8.32421875 C48 10 48 10 48.4375 12.5 C48 15 48 15 46.375 16.75 C40.58359535 19.79810771 33.63796673 19.21547045 27.25 19.25 C25.84234375 19.2809375 25.84234375 19.2809375 24.40625 19.3125 C16.62494811 19.35549062 7.0453654 18.43224517 1 13 C0.29296875 9.86328125 0.29296875 9.86328125 0.1875 6.3125 C0.13980469 5.13300781 0.09210938 3.95351562 0.04296875 2.73828125 C0.02878906 1.83464844 0.01460937 0.93101563 0 0 Z " fill="#237C80" transform="translate(149,100)"/>
<path d="M0 0 C5.66458808 0.92214225 5.66458808 0.92214225 8.2980957 1.53344727 C11.43576185 2.0752454 14.35929132 2.0777778 17.54296875 2.02734375 C18.78111328 2.01509766 20.01925781 2.00285156 21.29492188 1.99023438 C23.90174616 1.95491864 26.50852183 1.91582237 29.11523438 1.87304688 C30.96665039 1.85661133 30.96665039 1.85661133 32.85546875 1.83984375 C34.55159302 1.81458618 34.55159302 1.81458618 36.28198242 1.78881836 C39 2 39 2 41 4 C41.3125 6.4375 41.3125 6.4375 41 9 C37.80645503 12.90535921 33.80538853 13.43865166 29 14 C17.34381647 14.86374198 6.65907005 14.32953502 -4 9 C-2.80100302 5.9168649 -1.52299523 2.93720508 0 0 Z " fill="#247D81" transform="translate(156,87)"/>
<path d="M0 0 C1.38323858 2.50711993 1.49315303 3.9944827 1 6.8125 C-2.34937831 10.2549166 -6.12784924 10.47327093 -10.6875 10.875 C-11.79677856 10.99113647 -11.79677856 10.99113647 -12.9284668 11.10961914 C-16.08106383 11.43928292 -19.23632725 11.73921985 -22.39160156 12.04199219 C-24.69973353 12.26775664 -27.00596832 12.50851651 -29.3125 12.75 C-30.02301514 12.8126001 -30.73353027 12.8752002 -31.46557617 12.93969727 C-35.59730375 13.37406476 -37.80389187 14.24019368 -41 16.8125 C-48.45676736 17.72499161 -55.13218924 13.81710836 -60.8203125 9.3984375 C-62 7.8125 -62 7.8125 -61.6875 5.625 C-61.3471875 4.7278125 -61.3471875 4.7278125 -61 3.8125 C-60.443125 4.00585938 -59.88625 4.19921875 -59.3125 4.3984375 C-58.549375 4.65882812 -57.78625 4.91921875 -57 5.1875 C-56.2575 5.44273438 -55.515 5.69796875 -54.75 5.9609375 C-47.98326307 8.0563191 -42.12623961 9.14838591 -35.0625 9.0625 C-33.88107422 9.05452393 -33.88107422 9.05452393 -32.67578125 9.04638672 C-23.07377405 9.12342446 -23.07377405 9.12342446 -15 4.8125 C-14.35232207 2.24188689 -14.35232207 2.24188689 -14 -0.1875 C-9.65720388 -1.63509871 -4.02569892 -2.39025873 0 0 Z " fill="#7FE3EA" transform="translate(211,91.1875)"/>
<path d="M0 0 C0.5775 0.66 1.155 1.32 1.75 2 C5.45424186 4.27953345 6.76926996 4.14070009 11 3.9375 C16.64309245 3.71593073 16.64309245 3.71593073 20.0625 6.4375 C20.701875 7.283125 21.34125 8.12875 22 9 C22.99 9.33 23.98 9.66 25 10 C23.67761712 15.68624639 21.55651636 17.67754016 17 21 C13.01961003 22.99019499 8.99122229 22.31719113 4.875 21 C1.00628755 18.30872177 -1.09282088 15.28707786 -3 11 C-3.73525299 6.31276217 -2.70686832 3.83473011 0 0 Z " fill="#0A5966" transform="translate(119,87)"/>
<path d="M0 0 C1.85746073 3.71492147 1.4421807 7.94563892 1 12 C-0.81233537 15.83378636 -2.30026527 17.53351018 -5.8125 19.875 C-9.55329157 21.19527938 -12.05782897 21.49277138 -16 21 C-20.80386692 18.55096981 -23.35955168 15.67156241 -26 11 C-26 10.34 -26 9.68 -26 9 C-24.63875 8.38125 -24.63875 8.38125 -23.25 7.75 C-20.20334382 6.10949282 -18.28873194 4.55281639 -16 2 C-15.67 2.33 -15.34 2.66 -15 3 C-10.83682109 3.43911826 -7.1854544 3.7295104 -3.5625 1.5 C-2 0 -2 0 0 0 Z " fill="#0A5966" transform="translate(72,88)"/>
<path d="M0 0 C0.66 0 1.32 0 2 0 C6 8 6 8 5.9375 11 C5.65618869 14.11767214 5.65618869 14.11767214 8 16 C16.80628872 16.51962573 25.5063222 15.08982607 34.2265625 13.97851562 C45.89847567 12.57814658 45.89847567 12.57814658 51 14 C53 17 53 17 52.8125 19.5625 C52 22 52 22 49 24 C46.30078125 24.4140625 46.30078125 24.4140625 43.3125 24.625 C42.31863281 24.69976562 41.32476562 24.77453125 40.30078125 24.8515625 C39.54152344 24.90054688 38.78226563 24.94953125 38 25 C37.690625 24.030625 37.38125 23.06125 37.0625 22.0625 C36.30476658 19.15934208 36.30476658 19.15934208 35 18 C33.45434916 18.09469402 31.91261463 18.25380268 30.375 18.4375 C16.05272513 19.83434085 3.59049241 20.32278737 -8 11 C-7.04454634 9.53977837 -6.08553322 8.08188532 -5.125 6.625 C-4.59132812 5.81289063 -4.05765625 5.00078125 -3.5078125 4.1640625 C-2 2 -2 2 0 0 Z " fill="#7FE1E8" transform="translate(159,54)"/>
<path d="M0 0 C1.14662109 -0.03867188 1.14662109 -0.03867188 2.31640625 -0.078125 C4.97893717 0.33375824 5.8233075 1.13137234 7.4375 3.25 C7.875 5.75 7.875 5.75 7.4375 8.25 C3.98409484 11.90125649 -0.25491734 11.96861763 -5 12.375 C-5.79390137 12.45282715 -6.58780273 12.5306543 -7.40576172 12.61083984 C-9.79023369 12.83973764 -12.1755386 13.04886569 -14.5625 13.25 C-15.25907715 13.30929688 -15.9556543 13.36859375 -16.67333984 13.4296875 C-20.30115083 13.73283211 -23.93024255 14.00613819 -27.5625 14.25 C-27.79036458 12.26432292 -28.01822917 10.27864583 -28.24609375 8.29296875 C-28.53420735 6.05603607 -28.53420735 6.05603607 -29.5625 3.25 C-28.94729492 3.19465088 -28.33208984 3.13930176 -27.69824219 3.08227539 C-24.90269004 2.82892518 -22.10760238 2.57076306 -19.3125 2.3125 C-18.34441406 2.22548828 -17.37632812 2.13847656 -16.37890625 2.04882812 C-15.44433594 1.96181641 -14.50976562 1.87480469 -13.546875 1.78515625 C-12.25861816 1.66732788 -12.25861816 1.66732788 -10.94433594 1.54711914 C-7.2038635 1.08051859 -3.79980349 0.07715337 0 0 Z " fill="#83E2EB" transform="translate(205.5625,135.75)"/>
<path d="M0 0 C1 2 1 2 0.4765625 3.953125 C0.05503906 5.09007812 0.05503906 5.09007812 -0.375 6.25 C-4.52795561 18.17789533 -3.03863789 29.00969914 0 41 C-2.25 41.75 -2.25 41.75 -5 42 C-7.3125 40.375 -7.3125 40.375 -9 38 C-9.25 35.25 -9.25 35.25 -9 33 C-10.98 32.67 -12.96 32.34 -15 32 C-14.26677402 19.53515831 -9.00713736 8.50674084 0 0 Z " fill="#D7E3E4" transform="translate(46,20)"/>
<path d="M0 0 C1.98 0.66 3.96 1.32 6 2 C6.33 8.27 6.66 14.54 7 21 C4.628125 21.0825 2.25625 21.165 -0.1875 21.25 C-0.92508545 21.28641602 -1.6626709 21.32283203 -2.42260742 21.36035156 C-6.13089374 21.42244846 -7.88771644 21.07573636 -10.98828125 18.984375 C-11.65214844 18.32953125 -12.31601562 17.6746875 -13 17 C-12.69029106 11.61506072 -9.64569893 9.17532596 -5.9375 5.6875 C-5.08575195 4.86282227 -5.08575195 4.86282227 -4.21679688 4.02148438 C-2.82009075 2.67172635 -1.41121163 1.33458475 0 0 Z " fill="#EB7845" transform="translate(62,165)"/>
<path d="M0 0 C2.5078125 2.25 2.5078125 2.25 5.125 5 C8.2335286 8.44052785 8.2335286 8.44052785 12 11 C11.09494768 14.04426691 10.40994096 15.68048719 7.875 17.65625 C4.2786449 19.3371551 1.63913547 19.29829352 -2.3125 19.1875 C-5.6228125 19.0946875 -5.6228125 19.0946875 -9 19 C-8.67 12.73 -8.34 6.46 -8 0 C-2.97335203 -1.25666199 -2.97335203 -1.25666199 0 0 Z " fill="#ED8942" transform="translate(130,167)"/>
<path d="M0 0 C2.28773461 0.85790048 4.51653713 1.73204299 6.65625 2.91796875 C11.98756347 5.86600438 17.27945178 7.11311694 23.2421875 8.2890625 C26 9 26 9 28 11 C28.3125 14 28.3125 14 28 17 C23.58277426 19.94481716 20.07099174 18.98215637 15 18 C5.06946984 15.06946984 5.06946984 15.06946984 2 12 C1.3671875 10.1953125 1.3671875 10.1953125 0.875 8.125 C0.70742187 7.44695312 0.53984375 6.76890625 0.3671875 6.0703125 C0 4 0 4 0 0 Z " fill="#247E82" transform="translate(141,180)"/>
<path d="M0 0 C3.99353549 1.91837271 7.70002483 4.2349458 11.46484375 6.5625 C15.23538288 8.70049445 18.3795487 9.91587101 22.6875 10.5 C26 11 26 11 28 13 C28.35571424 15.77457104 28.36405327 17.37896796 26.9375 19.8125 C23.94316874 21.64773529 21.3522687 21.55569139 18 21 C6.65388049 17.72615505 6.65388049 17.72615505 3 14 C1.953125 10.64453125 1.953125 10.64453125 1.25 6.8125 C1.00765625 5.54019531 0.7653125 4.26789063 0.515625 2.95703125 C0.34546875 1.98121094 0.1753125 1.00539062 0 0 Z " fill="#247E82" transform="translate(146,200)"/>
<path d="M0 0 C0.99773437 0.02320312 1.99546875 0.04640625 3.0234375 0.0703125 C4.52777344 0.09738281 4.52777344 0.09738281 6.0625 0.125 C6.83335938 0.14820312 7.60421875 0.17140625 8.3984375 0.1953125 C7.8828125 0.8965625 7.3671875 1.5978125 6.8359375 2.3203125 C5.22943079 5.07172634 5.22943079 5.07172634 5.2109375 7.9453125 C7.10269856 13.12276381 11.37288933 18.68253841 16.3984375 21.1953125 C16.3984375 21.8553125 16.3984375 22.5153125 16.3984375 23.1953125 C11.94347497 23.5517095 8.41570135 23.64290859 4.2734375 21.8203125 C0.02047069 17.93716889 -5.08484845 13.0148069 -5.890625 7.05859375 C-5.38915009 2.93439496 -4.37584804 0.32851712 0 0 Z " fill="#075058" transform="translate(82.6015625,108.8046875)"/>
<path d="M0 0 C-0.99 0.33 -1.98 0.66 -3 1 C-3.17835515 5.54805635 -2.99785435 8.8794254 -1 13 C-4.67883365 14.13407654 -8.2275038 14.23588073 -12.0625 14.3125 C-13.29097656 14.34988281 -14.51945313 14.38726562 -15.78515625 14.42578125 C-19 14 -19 14 -20.94140625 12.140625 C-22 10 -22 10 -21.875 7.4375 C-20.89655164 4.71182243 -20.27851297 3.75715831 -18 2 C-15.0390625 1.26953125 -15.0390625 1.26953125 -11.625 0.8125 C-10.50351563 0.65394531 -9.38203125 0.49539062 -8.2265625 0.33203125 C-5.4496999 0.04627662 -2.78735675 -0.067857 0 0 Z " fill="#DC527E" transform="translate(196,148)"/>
<path d="M0 0 C2.83984375 1.0234375 2.83984375 1.0234375 5 2 C1.09658332 7.16258335 -3.2920723 11.8221821 -9 15 C-12.1875 14.625 -12.1875 14.625 -15 13 C-16.11375 12.46375 -17.2275 11.9275 -18.375 11.375 C-19.24125 10.92125 -20.1075 10.4675 -21 10 C-15.83616112 1.26119574 -10.10448362 -1.26489897 0 0 Z " fill="#237C80" transform="translate(135,16)"/>
<path d="M0 0 C-0.01160156 0.69867188 -0.02320313 1.39734375 -0.03515625 2.1171875 C-0.04417969 3.02726563 -0.05320313 3.93734375 -0.0625 4.875 C-0.07410156 5.77992188 -0.08570313 6.68484375 -0.09765625 7.6171875 C-0.16249257 10.0168585 -0.16249257 10.0168585 1 12 C-2.74527857 12.8568534 -6.28446798 13.19224764 -10.125 13.25 C-11.67574219 13.28867188 -11.67574219 13.28867188 -13.2578125 13.328125 C-16 13 -16 13 -17.83984375 11.671875 C-19.66529195 9.04126278 -19.45244704 7.10249401 -19 4 C-14.49884846 -1.22133579 -6.31624632 -0.11081134 0 0 Z " fill="#DF4D7A" transform="translate(191,126)"/>
<path d="M0 0 C1.21816406 0.03480469 1.21816406 0.03480469 2.4609375 0.0703125 C3.68683594 0.09738281 3.68683594 0.09738281 4.9375 0.125 C5.87722656 0.15980469 5.87722656 0.15980469 6.8359375 0.1953125 C6.82433594 0.82179687 6.81273437 1.44828125 6.80078125 2.09375 C6.79175781 2.91101562 6.78273437 3.72828125 6.7734375 4.5703125 C6.76183594 5.38242187 6.75023437 6.19453125 6.73828125 7.03125 C6.69127416 9.24468392 6.69127416 9.24468392 7.8359375 11.1953125 C2.04496315 12.72862013 -4.16937797 14.31480178 -10.1640625 13.1953125 C-11.91015625 11.875 -11.91015625 11.875 -13.1640625 10.1953125 C-13.3515625 7.0078125 -13.3515625 7.0078125 -13.1640625 4.1953125 C-11.1640625 3.1953125 -11.1640625 3.1953125 -7.6640625 2.7578125 C-4.09997244 2.18501231 -3.26321573 0.29451406 0 0 Z " fill="#DE4D7A" transform="translate(177.1640625,57.8046875)"/>
<path d="M0 0 C6.56047148 3.76619659 6.56047148 3.76619659 7.76953125 7.16015625 C8.04778216 8.71784128 8.30569369 10.27929905 8.54296875 11.84375 C9.20398542 14.96239273 10.7803755 16.7803755 13 19 C13.66 19.33 14.32 19.66 15 20 C15 20.66 15 21.32 15 22 C9.75372585 22.31477645 6.36223007 22.03459483 2 19 C-0.92433718 15.51388226 -2.79147642 12.3293378 -3.5 7.8125 C-2.93586945 4.63926564 -1.84879403 2.61912487 0 0 Z " fill="#034447" transform="translate(119,87)"/>
<path d="M0 0 C0.56847656 0.34933594 1.13695312 0.69867188 1.72265625 1.05859375 C6.58232214 3.92247031 10.30960751 5.41934771 16 6 C16.66 6.66 17.32 7.32 18 8 C17.75 11.5625 17.75 11.5625 17 15 C13.17526341 16.91236829 9.22793846 16.39070769 5.25 15.125 C1.74599707 11.8156639 0.93825174 7.63786227 0 3 C0 2.01 0 1.02 0 0 Z " fill="#237E82" transform="translate(153,225)"/>
<path d="M0 0 C0.33 0 0.66 0 1 0 C1.03738281 0.66386719 1.07476562 1.32773438 1.11328125 2.01171875 C1.59739917 8.99995303 1.59739917 8.99995303 5 15 C7.06954847 16.78344178 7.06954847 16.78344178 9 18 C8 19 8 19 4.8125 19.3125 C0.2762113 18.94067306 -1.54446755 17.91800518 -5 15 C-9 9.73684211 -9 9.73684211 -9 7 C-8.071875 6.5875 -7.14375 6.175 -6.1875 5.75 C-3.09616822 4.05279824 -1.88501798 2.8771327 0 0 Z " fill="#034347" transform="translate(55,90)"/>
<path d="M0 0 C1.48831242 0.00667405 2.97660807 0.01863442 4.46484375 0.03515625 C5.22345703 0.03966797 5.98207031 0.04417969 6.76367188 0.04882812 C8.64326246 0.06064945 10.52281274 0.07858547 12.40234375 0.09765625 C12.40234375 2.40765625 12.40234375 4.71765625 12.40234375 7.09765625 C6.79234375 7.09765625 1.18234375 7.09765625 -4.59765625 7.09765625 C-4.59765625 0.12480066 -4.59765625 0.12480066 0 0 Z " fill="#D44E7A" transform="translate(171.59765625,82.90234375)"/>
<path d="M0 0 C1.93922422 0.45098238 3.87633594 0.91105559 5.8125 1.375 C6.89144531 1.63023438 7.97039062 1.88546875 9.08203125 2.1484375 C12 3 12 3 15 5 C14.67 6.65 14.34 8.3 14 10 C9.29507663 9.538733 5.69862123 9.06457188 2 6 C0.6875 2.8125 0.6875 2.8125 0 0 Z " fill="#7BDEE6" transform="translate(153,79)"/>
<path d="M0 0 C1.28132812 0.00902344 2.56265625 0.01804687 3.8828125 0.02734375 C5.36394531 0.04474609 5.36394531 0.04474609 6.875 0.0625 C6.545 1.3825 6.215 2.7025 5.875 4.0625 C2.26506828 5.19730527 -1.1092327 5.16265767 -4.875 5.125 C-6.04546875 5.11597656 -7.2159375 5.10695313 -8.421875 5.09765625 C-9.31390625 5.08605469 -10.2059375 5.07445313 -11.125 5.0625 C-8.55821408 -0.6210974 -6.01441462 -0.0546765 0 0 Z " fill="#D44F7A" transform="translate(181.125,103.9375)"/>
</svg>
